<svg width="67" height="53" viewBox="0 0 67 53" fill="none" xmlns="http://www.w3.org/2000/svg">
<path d="M12 26.5C12 14.6259 21.6259 5 33.5 5C45.3741 5 55 14.6259 55 26.5C55 38.3741 45.3741 48 33.5 48C21.6259 48 12 38.3741 12 26.5Z" fill="white"/>
<path d="M35.64 27.8904L41.6208 32.4M27.3704 28.7704L26.66 28.0904C26.1489 27.602 25.7391 27.0176 25.454 26.3707C25.1689 25.7238 25.014 25.0271 24.9983 24.3203C24.9825 23.6136 25.1062 22.9106 25.3622 22.2517C25.6182 21.5928 26.0016 20.9907 26.4904 20.48L27.1704 19.78C27.6563 19.2683 28.2386 18.8578 28.8838 18.5721C29.529 18.2864 30.2243 18.1311 30.9297 18.1153C31.6352 18.0994 32.3368 18.2233 32.9942 18.4798C33.6515 18.7362 34.2517 19.1202 34.76 19.6096L35.4704 20.28C36.5004 21.2676 37.0967 22.6235 37.1285 24.0501C37.1603 25.4768 36.625 26.8579 35.64 27.8904L35 28.6C34.5127 29.1163 33.9277 29.5306 33.2789 29.819C32.6302 30.1074 31.9306 30.264 31.2208 30.2799C30.511 30.2957 29.8052 30.1704 29.1442 29.9113C28.4832 29.6522 27.8803 29.2644 27.3704 28.7704V28.7704V28.7704Z" stroke="black" stroke-width="1.6" stroke-linecap="round" stroke-linejoin="round"/>
<path d="M39.2992 28.46C38.4296 28.3904 37.4296 29.46 37.2992 30.46C37.2607 30.7351 37.2897 31.0154 37.3838 31.2768C37.4778 31.5381 37.6342 31.7726 37.8392 31.96C38.2696 32.46 41.2696 35.96 43.0792 33.36C43.2712 33.0864 43.4072 32.776 43.4792 32.4504C43.5496 32.0486 43.4677 31.6351 43.2496 31.2904C42.825 30.5692 42.2541 29.9448 41.5738 29.4573C40.8935 28.9699 40.1187 28.6302 39.2992 28.46Z" fill="black"/>
</svg>
